<?xml version="1.0" encoding="UTF-8" standalone="no"?>
<!-- Created with Inkscape (http://www.inkscape.org/) -->

<svg
   version="1.1"
   id="svg2"
   width="2149.8452"
   height="810.84247"
   viewBox="0 0 2149.8452 810.84247"
   xmlns="http://www.w3.org/2000/svg"
   xmlns:svg="http://www.w3.org/2000/svg">
  <defs
     id="defs6" />
  <g
     id="g8"
     transform="translate(968.0506,791.38068)">
    <path
       id="path4935"
       d="m -735.07694,-589.22799 h -77.28711 c -36.89164,10e-6 -71.12075,19.2119 -90.33687,50.70371 -19.21612,31.49181 -20.64554,70.71788 -3.7725,103.5248 l 171.44336,332.95707 c 21.97297,42.43381 66.30621,71.64453 117.5957,71.64453 H 999.40553 c 73.41727,0 132.55887,-58.760889 132.52137,-132.1289 l -0.242,-473.168 c -0.03,-58.44604 -47.3801,-105.82616 -105.8262,-105.82617 l -70.1895,-10e-6 c -58.44605,-1e-5 -105.82587,47.38012 -105.8262,105.82617 v 46.46484 h -29.3242 c -20.049,-5.73769 -40.4583,-8.34684 -61.0254,-8.34765 -17.1644,0 -33.4674,1.59911 -48.9844,4.81445 -2.6378,-35.10141 -15.9905,-64.66659 -42.5547,-91.23047 -29.8617,-29.86102 -63.4676,-43.10547 -104.51165,-43.10547 -40.01585,0 -75.77555,14.70474 -104.27935,42.85352 -24.3501,24.04669 -38.88,53.71412 -42.7246,86.91211 -2.9492,-0.0927 -5.8851,-0.2417 -8.8555,-0.24219 h -0.0117 c -56.8744,-0.0119 -110.2992,15.16082 -155.707,50.56445 -17.2739,-13.28824 -36.32905,-24.35603 -57.2461,-32.76953 -30.09788,-12.10632 -61.3209,-17.80178 -93.1709,-17.80078 -31.8141,10e-4 -62.7875,5.85519 -92.4756,17.73047 -14.0012,5.60052 -27.29148,12.43499 -39.87108,20.38867 -7.96159,-5.79966 -16.39264,-11.0059 -25.30664,-15.60742 -32.35247,-16.70086 -66.2567,-23.0264 -99.64452,-23.01953 -46.85173,0.01 -95.14594,11.10866 -137.3203,44.59765 -5.12663,4.07085 -9.9095,8.28749 -14.44336,12.61133 -6.68277,-10.31324 -15.1108,-19.38368 -24.90625,-26.80468 v -6.53516 c -3.3e-4,-58.44604 -47.38013,-105.82584 -105.82617,-105.82617 h -70.19141 c -52.30428,0.44786 -96.43538,39.04058 -103.90121,90.81836 -21.99713,0.2735 -43.89106,7.36449 -61.63104,20.29101 -17.73998,-12.92652 -39.05939,-20.01751 -61.00686,-20.29101 z"
       fill="#ff95be" />
    <path
       id="path756"
       fill="#ffffff"
       d="m -343.44123,-483.40216 c -0.0381,-24.9839 -17.54816,-46.53677 -41.99414,-51.69336 v -39.125 c 3.7e-4,-29.22375 -23.68835,-52.91444 -52.91211,-52.91407 h -70.19335 c -29.22376,-3.7e-4 -52.91248,23.69032 -52.91211,52.91407 v 37.90429 h -51.61329 c -19.84093,2.8e-4 -38.0144,11.10026 -47.07421,28.75196 l -13.93164,27.14257 -13.93165,-27.14257 c -9.05981,-17.6517 -27.23328,-28.75168 -47.07421,-28.75196 h -77.28711 c -39.59916,-3.6e-4 -65.13169,41.88393 -47.05274,77.11524 l 171.375,332.82617 c 13.20589,25.50297 39.79384,43.064443 70.60742,43.064453 H 999.3869 c 43.972,1.1e-5 79.6347,-35.645373 79.6348,-79.597653 l -0.252,-472.78711 c 4e-4,-29.22377 -23.6903,-52.91446 -52.9141,-52.91407 h -70.18745 c -29.22377,-3.9e-4 -52.91639,23.6903 -52.91602,52.91407 l -0.008,99.3789 -70.20117,-0.002 h -20.32422 c -16.84408,-5.61029 -34.44278,-8.34694 -52.72656,-8.34766 -44.10106,0 -80.81543,13.85666 -111.1875,43.05079 -2.43434,-6.60293 -6.1633,-12.65395 -10.96485,-17.79883 14.17819,-17.4808 20.80665,-38.07228 20.80665,-60.06055 0,-26.47173 -8.59195,-48.08442 -27.61133,-67.10352 -19.02068,-19.0202 -40.63054,-27.60637 -67.09961,-27.60937 -25.75158,0 -48.69372,9.419 -67.09571,27.5918 -18.43588,18.20611 -28.125,41.20807 -28.125,67.12109 0,17.43596 4.41114,33.71626 13.04493,48.23633 -8.39609,-3.3324 -16.91792,-6.02881 -25.53711,-8.04297 -15.31579,-3.579 -31.38152,-5.38081 -48.1543,-5.38281 -53.30105,-0.0131 -100.69043,16.18192 -138.4668,52.66015 -6.12739,5.91687 -11.7281,12.1489 -16.8125,18.67383 -4.58339,-5.58108 -9.39472,-10.99176 -14.60351,-16.0957 -18.10238,-17.73828 -39.01122,-31.72908 -62.8086,-41.26172 -23.45127,-9.4617 -48.0248,-13.98442 -73.42578,-13.98242 -25.156572,0.002 -49.512398,4.62015 -72.830075,13.94726 -23.3530766,9.34128 -44.197889,22.8431 -62.238281,40.39258 -0.44333,0.43126 -0.819193,0.91101 -1.257813,1.3457 -11.822118,-16.87143 -27.224584,-29.57898 -45.603515,-39.0664 -23.456406,-12.10857 -48.926756,-17.13295 -75.363286,-17.12695 -37.90384,0.0133 -74.06909,9.01995 -104.42578,33.125 -30.22219,23.99814 -45.67521,54.46549 -47.56836,91.80273 l -35.60547,-9.8e-4 z" />
    <g
       id="g16743"
       transform="matrix(1.0195196,0,0,1.0195196,-58.6501,1077.6586)">
      <path
         id="path22515-7"
         fill="#2c90d9"
         d="m -746.36914,-355.08591 72.32031,140.61718 72.17578,-140.61718 -17.25097,-41.43265 -54.99707,35.43265 -60.11687,-35.00746 z m 237.83008,0 v 126.80078 h 70.1914 v -126.80078 l -33.48876,-40 z m 379.22064,55.9123 c 0,7.46869 -2.7691,13.25917 -7.7793,17.32032 -5.16053,4.15107 -12.90202,6.65625 -24.03906,6.65625 -13.19084,0 -23.32428,-2.87396 -30.83984,-8.02344 -7.39885,-5.06967 -12.75067,-12.67898 -15.68164,-23.08398 l -2.59766,-9.22852 -60.36914,32.86719 3.19141,6.56836 c 9.36712,19.27451 22.52172,33.9153 39.54492,43.53711 16.94662,9.57848 37.80685,14.14453 62.19922,14.14453 31.66106,0 57.48393,-6.95165 76.554686,-21.8574 19.567912,-15.29433 28.994142,-36.18165 28.994142,-62.44138 0,-18.16986 -5.304736,-33.63532 -16.273437,-46.22266 -1.835105,-2.10591 -3.723095,-4.1277 -5.910157,-6.14843 l -129.501144,-43.22582 -11.74685,43.22557 c 10.84647,7.55729 24.96682,14.79025 41.9453,21.94346 4.88281,2.05718 11.5006,4.66724 19.88767,7.75889 23.85484,8.79341 32.42088,18.1267 32.42088,26.20995 z m 91.601623,-55.9123 c 0.06383,18.336 3.519877,35.71445 10.449219,52.06054 6.989706,16.48858 17.181599,31.30459 30.5078126,44.45313 13.1877964,13.00956 28.2884594,22.93155 45.2617184,29.72461 16.93611,6.94669 34.601927,10.42382 52.953127,10.42382 18.66934,0 36.47492,-3.54208 53.45898,-10.42382 16.95346,-6.86934 32.3782,-16.87244 46.19336,-30.15625 13.23426,-12.6978 23.25635,-27.25928 30.09375,-43.79883 6.92548,-16.34815 10.37424,-33.80047 10.4375,-52.2832 l -35.93162,-40 -37.2715,40 c -4.4e-4,20.39253 -6.5935,37.42533 -19.69727,51.44335 -12.77781,13.6798 -28.57881,20.59571 -46.77734,20.59571 -18.183891,0 -34.080821,-6.9104 -47.029299,-20.59571 -12.923925,-14.00313 -19.444882,-31.04429 -19.445313,-51.44335 l -36.6015625,-40 z m 86.21875,126.23828 v 0.002 c -0.01356,-0.0102 -0.02746,-0.0115 -0.04102,-0.0156 l 0.06445,0.0274 c -0.0082,0 -0.01518,-0.0117 -0.02344,-0.0137 z m 353.488747,10.4282 c 13.54358,0 26.38661,-1.4926 38.51172,-4.52148 h 0.008 c 12.29456,-3.02971 23.82293,-7.5828 34.56836,-13.67188 l 3.87695,-2.19726 v -89.86719 l -13.66797,17.44922 c -7.25036,9.2557 -15.58754,16.08885 -24.83789,20.57422 -9.28227,4.33295 -20.04604,6.59961 -32.38477,6.59961 -22.22938,0 -38.95646,-6.54087 -50.87109,-18.875 -11.497,-12.23187 -17.7405,-29.55303 -18.02539,-52.15625 l -36.16341,-40.00023 -36.16341,39.99976 c 0,39.89163 12.36041,72.9364 37.62914,98.47484 25.34225,25.61274 58.0845,38.19164 97.51976,38.19164 z m 126.47414,-136.66648 v 126.80078 h 70.19141 v -126.80078 l -35.09571,-40 z m 232.54492,136.66989 c 17.91212,0 34.06919,-3.58964 48.29296,-10.97657 8.4747,-4.34946 16.16233,-10.1666 23.24219,-17.08984 v 18.20117 h 70.19141 v -126.80468 l -34.3877,-40 -34.38769,40 c -0.26586,22.3007 -6.01806,39.75522 -16.85352,52.7871 l -0.0156,0.0195 -0.0156,0.0195 c -10.72339,13.07368 -24.84419,19.71679 -42.15234,19.71679 -18.80534,0 -33.03976,-6.34878 -42.68555,-17.98046 -9.98453,-12.04021 -15.4414,-29.75146 -15.4414,-54.06055 0,-0.17878 0.0306,-0.32386 0.0312,-0.50195 l -36.36035,-39.99995 -36.38769,40.00005 c 0.16404,41.13543 10.06411,74.50512 30.87988,99.28416 21.24366,25.28839 49.97907,37.38573 86.0498,37.38573 z m 194.65821,-136.66989 v 126.80078 h 70.18943 v -126.80078 l -35.09472,-40 z m -1333.76953,61.95507 c -7.81937,8.02515 -11.78321,17.85967 -11.78321,29.11719 0,11.3498 3.84391,20.67203 11.85352,28.68164 0,0 0.0247,0.0247 0.0371,0.0371 0.0117,0.0117 0.0233,0.0236 0.0352,0.0352 7.89506,7.68727 17.656,11.52734 28.86132,11.52734 11.20532,0 21.02038,-3.78687 28.89939,-11.56349 8.09817,-7.99293 11.88766,-17.36799 11.88766,-28.71779 0,-11.25752 -3.96188,-21.09204 -11.78125,-29.11719 -8.01737,-8.22833 -17.47032,-12.17578 -29.00585,-12.17578 -11.53551,0 -20.98651,3.94745 -29.00388,12.17578 z"
         transform="matrix(0.98085412,0,0,0.98085412,57.527192,-1057.2327)" />
      <path
         id="path22517-2"
         fill="#595aff"
         d="m 994.89806,-1680.5502 v 275.2368 h 68.84564 v -275.2368 z m -426.21757,55.1451 c 0,11.2731 3.99968,21.2489 12.12271,29.3718 8.123,8.1229 18.09891,12.1226 29.37195,12.1226 11.35389,0 21.27038,-3.9187 29.1584,-11.9072 7.95881,-8.0602 11.8402,-18.1012 11.8402,-29.5874 0,-11.6616 -3.85663,-21.0964 -11.87944,-29.1191 -8.0229,-8.0228 -17.45751,-11.8786 -29.11907,-11.8798 -11.27301,0 -21.19908,4.0494 -29.34037,12.0893 -8.06713,7.9666 -12.15438,17.7657 -12.15438,28.9098 z m -1009.95593,5.1525 v 89.0795 H -543.7996 l -59.83785,116.578 -59.83785,-116.578 h -75.80738 l 64.73063,125.8597 h 141.72958 l 32.70153,-63.7114 h 58.8455 v 63.7114 h 68.84753 v -63.7114 h 41.18821 v -62.1483 h -41.18821 v -89.0795 z m 375.918585,155.5543 3.383181,8.9561 51.385644,-35.3721 c 0,0 -1.851875,-3.857 -2.777809,-5.7855 -6.7289,-14.0147 -17.404333,-24.4912 -31.850912,-31.9487 -14.281632,-7.3724 -30.989607,-11.0203 -50.094691,-11.0163 -28.409298,0.01 -51.988398,6.7949 -70.172518,21.2342 -18.34124,14.564 -27.40164,33.5453 -27.40164,56.9911 0,17.1996 5.58948,32.0676 16.87567,44.2944 l 0.023,0.023 0.0211,0.021 c 3.82522,4.0761 8.55981,8.0522 14.20132,11.9829 h 138.543723 c -10.359714,-9.5718 -25.076706,-18.0007 -43.477508,-25.3087 -4.936694,-2.0413 -11.824274,-4.6444 -20.596021,-7.7894 -26.990444,-9.8001 -36.743714,-19.172 -36.743714,-26.4466 0,-5.7468 2.20895,-10.2281 6.31542,-13.4619 4.64706,-3.6596 11.20826,-5.841 20.179565,-5.841 7.983358,0 14.66402,1.9442 20.391995,5.5172 5.728506,3.5734 9.62335,8.2035 11.794195,13.9503 z m 176.759985,9.1713 c 12.71593,-13.6031 28.30821,-20.4506 46.13271,-20.4504 18.00825,3e-4 33.53465,6.8879 46.11641,20.4309 12.64893,13.6154 19.08545,30.204 19.08545,50.2282 h 71.80159 c 5.7e-4,-0.1682 0.001,-0.3297 0.001,-0.4981 0,-17.7033 -3.40206,-34.6634 -10.25048,-50.8186 -6.85792,-16.1776 -16.90735,-30.5952 -29.95053,-43.3759 -13.13251,-12.8683 -27.97898,-22.7252 -44.63845,-29.3893 -16.48814,-6.6617 -34.05475,-9.9694 -52.66243,-9.9669 -18.14704,0 -35.54374,3.3205 -52.16243,9.968 -16.622929,6.6492 -31.348963,16.1966 -44.132686,28.6325 -12.936439,12.5844 -22.93215,27.048 -29.946702,43.3569 -0.0025,0.01 -0.0051,0.011 -0.0077,0.017 -0.0026,0.01 -0.0077,0.017 -0.0077,0.017 -7.252131,16.0112 -10.272148,33.391 -10.272148,51.5619 0,0.1683 0.0224,0.33 0.02299,0.4981 H 92.33394 c 0,-20.0242 6.399684,-36.6474 19.06919,-50.2113 z m 402.85724,3.9018 13.05187,14.3564 v -84.3611 c -1.28545,-0.7146 -2.57091,-1.4291 -3.85636,-2.1437 -9.56306,-5.316 -19.83793,-9.1211 -30.73982,-11.6687 -10.91188,-2.5499 -22.71899,-3.9175 -35.43431,-3.9191 -40.56283,-0.01 -73.9711,12.1931 -99.75113,37.0872 -25.63866,24.7576 -38.27055,57.2944 -38.27055,96.957 h 70.94142 c -0.007,-0.5206 -0.10536,-0.9583 -0.10536,-1.4847 0,-21.9051 6.18694,-38.9357 17.84311,-51.4661 11.46872,-12.3289 27.37878,-18.9485 47.35878,-18.9485 11.76604,0 22.55005,2.2391 32.48504,6.5743 10.06779,4.3931 18.92872,10.7139 26.47731,19.017 z m 345.96557,-7.2171 c 0,0 0.0116,0.013 0.0172,0.019 0.006,0.01 0.0172,0.021 0.0172,0.021 9.79034,11.9533 15.36033,28.8865 15.36033,51.993 l -0.0996,1.4904 h 67.45863 v -125.8558 h -68.84753 v 20.1113 c -5.31867,-5.8866 -11.5672,-10.8745 -18.71477,-15.0998 -14.97288,-8.8512 -32.67836,-13.1997 -52.93913,-13.2005 -33.73008,0 -60.99641,12.3808 -82.15701,37.4029 -20.85573,24.6616 -31.04933,56.7346 -31.04933,95.6555 h -2.2e-4 l 0.004,0.9885 h 71.35522 c 0.0811,-23.3443 5.53791,-40.7079 15.59405,-52.7611 10.03027,-12.0222 24.19484,-18.3987 42.38171,-18.3987 18.26307,0 31.65709,6.6296 41.61925,17.6343 z m -284.35183,-72.3346 v 125.8597 h 34.42377 34.42376 v -125.8597 z"
         transform="translate(0,-0.20674443)" />
    </g>
    <path
       id="path118375-8"
       fill="#ff95be"
       d="m -617.43342,-189.62599 c -14.76999,0 -26.70094,11.93101 -26.70094,26.70095 0,14.76983 11.93095,26.70094 26.70094,26.70094 H 662.28333 823.51212 l 26.70094,-26.70094 -26.70094,-26.70095 H 662.28333 Z m 1468.26244,0 26.70094,26.70095 -26.70094,26.70094 h 27.3169 l 26.70095,-26.70094 -26.70095,-26.70095 z m 54.63528,0 26.70094,26.70095 -26.70094,26.70094 h 93.94266 c 14.76994,0 26.70244,-11.93111 26.70244,-26.70094 0,-14.76994 -11.9325,-26.70095 -26.70244,-26.70095 z" />
  </g>
</svg>
