<?xml version="1.0" encoding="UTF-8" standalone="no"?>
<!-- Created with Inkscape (http://www.inkscape.org/) -->

<svg
   version="1.1"
   id="svg2"
   width="2149.8452"
   height="810.84247"
   viewBox="0 0 2149.8452 810.84247"
   sodipodi:docname="vtsocial_logo_full.svg"
   inkscape:version="1.2 (dc2aedaf03, 2022-05-15)"
   xmlns:inkscape="http://www.inkscape.org/namespaces/inkscape"
   xmlns:sodipodi="http://sodipodi.sourceforge.net/DTD/sodipodi-0.dtd"
   xmlns="http://www.w3.org/2000/svg"
   xmlns:svg="http://www.w3.org/2000/svg">
  <defs
     id="defs6">
    <inkscape:path-effect
       effect="offset"
       id="path-effect7312"
       is_visible="true"
       lpeversion="1.2"
       linejoin_type="miter"
       unit="mm"
       offset="1.9847241"
       miter_limit="4"
       attempt_force_join="false"
       update_on_knot_move="true" />
    <inkscape:path-effect
       effect="offset"
       id="path-effect1480"
       is_visible="true"
       lpeversion="1.2"
       linejoin_type="miter"
       unit="mm"
       offset="2"
       miter_limit="4"
       attempt_force_join="false"
       update_on_knot_move="true" />
    <inkscape:path-effect
       effect="offset"
       id="path-effect1456"
       is_visible="true"
       lpeversion="1.2"
       linejoin_type="miter"
       unit="mm"
       offset="2"
       miter_limit="4"
       attempt_force_join="false"
       update_on_knot_move="true" />
    <inkscape:path-effect
       effect="offset"
       id="path-effect5001"
       is_visible="true"
       lpeversion="1.2"
       linejoin_type="round"
       unit="mm"
       offset="14"
       miter_limit="0"
       attempt_force_join="false"
       update_on_knot_move="true" />
    <inkscape:path-effect
       effect="bool_op"
       operand-path="#g4993"
       id="path-effect4997"
       is_visible="true"
       lpeversion="1.2"
       operation="union"
       swap-operands="false"
       filltype-this="from-curve"
       filter=""
       filltype-operand="from-curve" />
    <inkscape:path-effect
       effect="offset"
       id="path-effect4967"
       is_visible="true"
       lpeversion="1.2"
       linejoin_type="round"
       unit="mm"
       offset="28"
       miter_limit="0"
       attempt_force_join="false"
       update_on_knot_move="true" />
    <inkscape:path-effect
       effect="bool_op"
       operand-path="#g4993"
       id="path-effect4963"
       is_visible="true"
       lpeversion="1.2"
       operation="union"
       swap-operands="false"
       filltype-this="from-curve"
       filter=""
       filltype-operand="from-curve" />
    <filter
       id="selectable_hidder_filter"
       width="1.0001359"
       height="1.0005005"
       x="0"
       y="0"
       style="color-interpolation-filters:sRGB"
       inkscape:label="LPE boolean visibility">
      <feComposite
         id="boolops_hidder_primitive"
         result="composite1"
         operator="arithmetic"
         in2="SourceGraphic"
         in="BackgroundImage"
         k1="0"
         k2="0"
         k3="0"
         k4="0" />
    </filter>
    <inkscape:path-effect
       effect="bool_op"
       operand-path="#g2954"
       id="path-effect4643"
       is_visible="true"
       lpeversion="1"
       operation="union"
       swap-operands="false"
       filltype-this="from-curve"
       filter=""
       filltype-operand="from-curve" />
    <inkscape:path-effect
       effect="offset"
       id="path-effect2920"
       is_visible="true"
       lpeversion="1.2"
       linejoin_type="miter"
       unit="mm"
       offset="20"
       miter_limit="4"
       attempt_force_join="false"
       update_on_knot_move="true" />
    <inkscape:path-effect
       effect="offset"
       id="path-effect2318"
       is_visible="true"
       lpeversion="1.2"
       linejoin_type="miter"
       unit="mm"
       offset="10"
       miter_limit="4"
       attempt_force_join="false"
       update_on_knot_move="true" />
    <filter
       style="color-interpolation-filters:sRGB"
       inkscape:label="Drop Shadow"
       id="filter8402"
       x="0"
       y="0"
       width="1.0184699"
       height="1.042828">
      <feFlood
         flood-opacity="0.380392"
         flood-color="rgb(0,38,98)"
         result="flood"
         id="feFlood8392" />
      <feComposite
         in="flood"
         in2="SourceGraphic"
         operator="in"
         result="composite1"
         id="feComposite8394" />
      <feGaussianBlur
         in="composite1"
         stdDeviation="0"
         result="blur"
         id="feGaussianBlur8396" />
      <feOffset
         dx="4"
         dy="4"
         result="offset"
         id="feOffset8398" />
      <feComposite
         in="SourceGraphic"
         in2="offset"
         operator="over"
         result="composite2"
         id="feComposite8400" />
    </filter>
    <clipPath
       clipPathUnits="userSpaceOnUse"
       id="clipPath1534">
      <g
         aria-label="vt.social"
         id="g1554"
         style="font-size:552.885px;line-height:1.25;font-family:FuturaTEEMed;-inkscape-font-specification:FuturaTEEMed;stroke-width:13.8221"
         inkscape:label="vtsocial_futura"
         transform="matrix(1.0351343,0,0,1.0351343,-1369.0264,771.73122)">
        <path
           d="m 534.88477,-1215.2305 132.28125,254.82816 133.17773,-254.82816 h -77.22461 l -55.40625,104.1543 -55.6543,-104.1543 z"
           id="path1536"
           sodipodi:nodetypes="ccccccc" />
        <path
           d="m 823.36133,-1300.2676 v 85.0371 h -22.94727 v 65.3301 h 22.94727 v 182.4961 h 68.83984 v -182.4961 h 41.57422 v -65.3301 h -41.57422 v -85.0371 z"
           id="path1538" />
        <path
           d="m 998.68945,-1041.9141 c -11.11961,0.2181 -20.77707,4.32 -28.64062,12.1641 -8.03453,7.8276 -11.97461,16.9448 -11.97461,28.0605 0,11.32131 3.99155,21.2125 11.85937,29.29888 l 0.0371,0.0371 0.0352,0.0371 c 8.05647,8.05648 17.42999,11.93164 28.83203,11.93164 11.40198,0 20.77558,-3.87517 28.83198,-11.93164 8.0573,-8.05714 11.9317,-17.43192 11.9317,-28.83398 0,-11.402 -3.8752,-20.7756 -11.9317,-28.832 -8.0565,-8.0566 -17.43,-11.9317 -28.83198,-11.9317 h -0.0742 z m -28.64062,12.1641 c 0.0124,-0.012 0.0208,-0.025 0.0332,-0.037 l -0.0762,0.074 c 0.0138,-0.014 0.0292,-0.023 0.043,-0.037 z"
           id="path1540" />
        <path
           d="m 1171.3438,-1221.4395 c -20.9159,0 -39.3334,6.8263 -55.1348,20.4493 -16.7756,14.3278 -24.7735,33.2871 -24.7735,57.0293 0,15.5673 3.5079,28.8505 11.1856,39.3007 l 0.021,0.031 0.023,0.029 c 7.3937,9.8583 20.5762,19.1509 38.1172,27.6445 l -0.066,-0.031 c 25.3214,12.5709 40.2113,20.8096 44.5566,24.2558 3.0252,2.3993 4.9688,6.2437 4.9688,11.627 0,5.4594 -1.9571,9.7009 -5.0352,12.4492 l -0.051,0.045 -0.049,0.047 c -3.0923,2.8633 -7.8333,4.7363 -14.5722,4.7363 -6.8732,0 -11.9826,-1.6908 -15.7969,-4.5722 -4.1557,-3.4786 -9.3938,-10.4602 -15.6563,-21.7676 l -3.4043,-6.1445 -58.6425,27.0683 2.8476,6.7383 c 17.2575,40.84281 47.6956,62.11913 89.8418,62.11913 24.868,0 46.1522,-8.11478 63.4844,-24.45507 18.0173,-16.83476 26.9531,-37.09196 26.9531,-61.39256 0,-24.7595 -10.4273,-44.3471 -31.0391,-58.5703 -10.0466,-7.0137 -25.2749,-15.1596 -45.3769,-24.3985 -12.426,-5.858 -19.8911,-10.0695 -23.4297,-12.9726 -2.244,-1.9628 -3.2812,-4.3725 -3.2812,-6.6465 0,-2.3482 0.9874,-4.6413 2.7168,-6.3145 2.1637,-1.9151 4.6113,-2.8632 7.5429,-2.8632 6.5782,0 12.9972,4.35 19.1035,17.0449 l 3.4161,7.1015 57.8769,-30.8672 -3.1133,-6.5234 c -7.9539,-16.6653 -17.9042,-29.4707 -30.0722,-37.793 -12.0977,-8.3981 -26.5848,-12.4043 -43.1621,-12.4043 z m 43.1621,12.4043 c 0.01,0.01 0.019,0.01 0.027,0.016 l -0.049,-0.033 c 0.01,0.01 0.014,0.012 0.022,0.017 z"
           id="path1542" />
        <path
           d="m 1413.9219,-1221.4395 c -35.9028,0.567 -65.8781,11.9348 -89.5703,34.4629 -27.8605,26.152 -41.7813,57.2654 -41.7813,94.0391 0,33.8032 10.5546,63.1268 31.7891,87.8047 25.7063,29.92683 58.4669,44.74803 98.6015,44.74803 35.9784,0 66.4381,-11.40241 91.0039,-34.42578 27.9774,-25.87985 41.8184,-57.78385 41.8184,-96.23635 0,-32.6325 -10.7111,-61.3237 -32.0879,-85.9453 -25.7428,-29.7702 -58.8642,-44.4473 -99.6543,-44.4473 h -0.061 z m 0.047,63.4454 c 18.8259,0.3424 33.1672,6.1001 43.5507,16.6386 l 0.037,0.039 0.039,0.037 c 11.9028,11.7462 18.2676,28.3773 18.2676,50.502 0,18.8188 -4.6859,33.6682 -13.5254,45.0332 l -0.01,0.012 -0.01,0.01 c -11.0739,14.3493 -27.1113,21.8965 -48.2793,21.8965 -18.0193,0 -32.2742,-5.5974 -43.2832,-16.4492 -11.849,-11.6931 -18.2695,-28.6895 -18.2695,-51.582 0,-17.4031 4.6041,-32.0229 13.3457,-43.793 11.0929,-14.6684 27.0662,-22.3257 48.1348,-22.3437 z"
           id="path1544" />
        <path
           d="m 1710.7305,-1221.4395 c -26.6488,0 -50.6705,6.3402 -71.9356,19.1758 h -0.01 -0.01 c -18.9754,11.5003 -34.0668,27.2828 -45.3027,47.2637 0,0.01 -0.01,0.012 -0.01,0.017 -11.6062,20.365 -17.4512,41.9553 -17.4512,64.7383 0,33.2709 11.5111,62.6373 34.3438,87.9434 l 0.012,0.012 0.012,0.014 c 25.6515,28.15878 58.8009,41.88473 99.8047,41.88473 23.5299,0 46.5556,-6.11133 69.1582,-18.16601 l 4.002,-2.13477 v -96.34175 l -13.3555,15.9531 c -12.734,15.21 -23.2335,24.9216 -31.7656,29.9121 -8.1518,4.7679 -18.1979,7.3359 -30.1993,7.3359 -18.7595,0 -33.4871,-6.4329 -43.9765,-18.4648 l -0.041,-0.047 -0.041,-0.047 c -11.7634,-13.0524 -17.7637,-29.1784 -17.7637,-48.6621 0,-18.4614 5.5143,-33.7427 16.2324,-46.0605 l 0.027,-0.033 0.027,-0.031 c 11.6985,-13.7537 27.2311,-20.8261 46.3457,-20.8261 11.9647,0 21.9675,2.6349 30.1094,7.5507 l 0.045,0.027 0.045,0.027 c 8.5609,5.0073 18.7555,14.426 30.9395,29.0821 l 13.3711,16.0859 v -97.0039 l -4.0137,-2.1309 c -21.4469,-11.3876 -44.3158,-17.0801 -68.6074,-17.0801 z"
           id="path1546" />
        <path
           d="m 1868.4785,-1346.1621 c -11.5131,0.2172 -21.5238,4.523 -29.7265,12.707 -8.4012,8.195 -12.5137,17.7622 -12.5137,29.4063 0,11.7129 4.1937,21.9581 12.4023,30.3828 l 0.035,0.035 0.033,0.035 c 8.4215,8.4215 18.2471,12.4707 30.1816,12.4707 11.7964,0 21.5198,-4.0783 29.9121,-12.4707 8.4216,-8.4215 12.4727,-18.2478 12.4727,-30.1836 0,-11.9198 -4.0541,-21.6928 -12.5156,-29.9473 -8.4124,-8.3939 -18.2235,-12.4355 -30.1387,-12.4355 h -0.072 z m 30.2813,12.4355 c 0.014,0.014 0.029,0.022 0.043,0.035 l -0.072,-0.07 c 0.011,0.011 0.018,0.024 0.029,0.035 z m -60.0078,0.2715 c 0.011,-0.011 0.018,-0.024 0.029,-0.035 l -0.072,0.07 c 0.014,-0.013 0.029,-0.022 0.043,-0.035 z m -4.4161,118.2246 v 247.8262 h 68.8399 v -247.8262 z"
           id="path1548" />
        <path
           d="m 2058.1855,-1221.4395 c -30.6665,0 -57.4522,11.1617 -80.0566,33.1915 l -0.014,0.014 -0.014,0.014 c -24.8868,24.5009 -37.0801,56.8273 -37.0801,96.3633 0,35.7321 9.6491,65.6404 29.5508,89.5996 23.1492,27.96627 52.8054,41.87303 89.2324,41.87303 14.8847,0 28.2812,-2.48134 40.0332,-7.66015 7.6451,-3.36902 15.5728,-8.49826 23.6797,-14.94336 v 15.58398 h 68.8398 v -247.8262 h -68.8398 v 17.4512 c -7.9095,-6.5563 -15.772,-11.8308 -23.5742,-15.4121 -12.1547,-5.5792 -26.1329,-8.2481 -41.7579,-8.2481 z m 9.9063,63.4454 c 16.5019,0.338 29.8112,5.8621 40.3594,16.4101 11.9375,11.9375 18.3047,28.682 18.3047,50.8067 0,19.1685 -4.7705,34.2733 -13.7715,45.8105 -10.9762,13.9542 -26.0898,21.1406 -45.3496,21.1406 -15.015,0 -27.1912,-4.9499 -37.0332,-14.789 0,0 0,0 -0.01,-0.01 -12.9173,-13.0947 -19.6543,-30.6592 -19.6543,-53.2363 0,-17.9531 5.2796,-33.3741 15.6211,-46.3008 l 0.022,-0.027 0.019,-0.025 c 10.2861,-13.0914 24.1352,-19.7617 41.4883,-19.7832 z"
           id="path1550" />
        <path
           d="m 2245,-1385.8477 v 418.4434 h 68.8398 v -418.4434 z"
           id="path1552" />
      </g>
    </clipPath>
    <filter
       style="color-interpolation-filters:sRGB"
       inkscape:label="Drop Shadow"
       id="filter8402-2"
       x="0"
       y="0"
       width="1.0184699"
       height="1.042828">
      <feFlood
         flood-opacity="0.380392"
         flood-color="rgb(0,38,98)"
         result="flood"
         id="feFlood8392-0" />
      <feComposite
         in="flood"
         in2="SourceGraphic"
         operator="in"
         result="composite1"
         id="feComposite8394-6" />
      <feGaussianBlur
         in="composite1"
         stdDeviation="0"
         result="blur"
         id="feGaussianBlur8396-8" />
      <feOffset
         dx="4"
         dy="4"
         result="offset"
         id="feOffset8398-9" />
      <feComposite
         in="SourceGraphic"
         in2="offset"
         operator="over"
         result="composite2"
         id="feComposite8400-2" />
    </filter>
  </defs>
  <sodipodi:namedview
     id="namedview4"
     pagecolor="#ffffff"
     bordercolor="#666666"
     borderopacity="1.0"
     inkscape:showpageshadow="2"
     inkscape:pageopacity="0.0"
     inkscape:pagecheckerboard="0"
     inkscape:deskcolor="#d1d1d1"
     showgrid="false"
     inkscape:zoom="1"
     inkscape:cx="1000"
     inkscape:cy="482.5"
     inkscape:window-width="3840"
     inkscape:window-height="2055"
     inkscape:window-x="0"
     inkscape:window-y="0"
     inkscape:window-maximized="1"
     inkscape:current-layer="g8"
     showguides="true">
    <sodipodi:guide
       position="595.62188,1300.4019"
       orientation="0,-1"
       id="guide7420"
       inkscape:locked="false" />
    <sodipodi:guide
       position="526.77482,1639.7141"
       orientation="0,-1"
       id="guide7422"
       inkscape:locked="false" />
    <sodipodi:guide
       position="152.70177,505.65739"
       orientation="1,0"
       id="guide16723"
       inkscape:locked="false" />
    <sodipodi:guide
       position="1003.5366,374.5483"
       orientation="0,-1"
       id="guide16745"
       inkscape:locked="false" />
    <sodipodi:guide
       position="1994.1591,249.124"
       orientation="1,0"
       id="guide17956"
       inkscape:locked="false" />
    <sodipodi:guide
       position="1994.16,182.38683"
       orientation="0,-1"
       id="guide702"
       inkscape:locked="false" />
  </sodipodi:namedview>
  <g
     inkscape:groupmode="layer"
     inkscape:label="Image"
     id="g8"
     transform="translate(968.0506,791.38068)">
    <path
       id="path4935"
       d="m -735.07694,-589.22799 h -77.28711 c -36.89164,10e-6 -71.12075,19.2119 -90.33687,50.70371 -19.21612,31.49181 -20.64554,70.71788 -3.7725,103.5248 l 171.44336,332.95707 c 21.97297,42.43381 66.30621,71.64453 117.5957,71.64453 H 999.40553 c 73.41727,0 132.55887,-58.760889 132.52137,-132.1289 l -0.242,-473.168 c -0.03,-58.44604 -47.3801,-105.82616 -105.8262,-105.82617 l -70.1895,-10e-6 c -58.44605,-1e-5 -105.82587,47.38012 -105.8262,105.82617 v 46.46484 h -29.3242 c -20.049,-5.73769 -40.4583,-8.34684 -61.0254,-8.34765 -17.1644,0 -33.4674,1.59911 -48.9844,4.81445 -2.6378,-35.10141 -15.9905,-64.66659 -42.5547,-91.23047 -29.8617,-29.86102 -63.4676,-43.10547 -104.51165,-43.10547 -40.01585,0 -75.77555,14.70474 -104.27935,42.85352 -24.3501,24.04669 -38.88,53.71412 -42.7246,86.91211 -2.9492,-0.0927 -5.8851,-0.2417 -8.8555,-0.24219 h -0.0117 c -56.8744,-0.0119 -110.2992,15.16082 -155.707,50.56445 -17.2739,-13.28824 -36.32905,-24.35603 -57.2461,-32.76953 -30.09788,-12.10632 -61.3209,-17.80178 -93.1709,-17.80078 -31.8141,10e-4 -62.7875,5.85519 -92.4756,17.73047 -14.0012,5.60052 -27.29148,12.43499 -39.87108,20.38867 -7.96159,-5.79966 -16.39264,-11.0059 -25.30664,-15.60742 -32.35247,-16.70086 -66.2567,-23.0264 -99.64452,-23.01953 -46.85173,0.01 -95.14594,11.10866 -137.3203,44.59765 -5.12663,4.07085 -9.9095,8.28749 -14.44336,12.61133 -6.68277,-10.31324 -15.1108,-19.38368 -24.90625,-26.80468 v -6.53516 c -3.3e-4,-58.44604 -47.38013,-105.82584 -105.82617,-105.82617 h -70.19141 c -52.30428,0.44786 -96.43538,39.04058 -103.90121,90.81836 -21.99713,0.2735 -43.89106,7.36449 -61.63104,20.29101 -17.73998,-12.92652 -39.05939,-20.01751 -61.00686,-20.29101 z"
       style="clip-rule:evenodd;display:inline;fill:#ff95be;fill-opacity:1;fill-rule:evenodd;stroke:none;stroke-width:8;stroke-linecap:round;stroke-linejoin:round;stroke-miterlimit:2"
       sodipodi:nodetypes="cssccccsssssccccssscsscssscsssccsccccc" />
    <path
       id="path756"
       style="fill:#ffffff;stroke:none;stroke-width:0.5;stroke-linecap:round;stroke-linejoin:round;stroke-dasharray:none;stroke-opacity:1"
       d="m -343.44123,-483.40216 c -0.0381,-24.9839 -17.54816,-46.53677 -41.99414,-51.69336 v -39.125 c 3.7e-4,-29.22375 -23.68835,-52.91444 -52.91211,-52.91407 h -70.19335 c -29.22376,-3.7e-4 -52.91248,23.69032 -52.91211,52.91407 v 37.90429 h -51.61329 c -19.84093,2.8e-4 -38.0144,11.10026 -47.07421,28.75196 l -13.93164,27.14257 -13.93165,-27.14257 c -9.05981,-17.6517 -27.23328,-28.75168 -47.07421,-28.75196 h -77.28711 c -39.59916,-3.6e-4 -65.13169,41.88393 -47.05274,77.11524 l 171.375,332.82617 c 13.20589,25.50297 39.79384,43.064443 70.60742,43.064453 H 999.3869 c 43.972,1.1e-5 79.6347,-35.645373 79.6348,-79.597653 l -0.252,-472.78711 c 4e-4,-29.22377 -23.6903,-52.91446 -52.9141,-52.91407 h -70.18745 c -29.22377,-3.9e-4 -52.91639,23.6903 -52.91602,52.91407 l -0.008,99.3789 -70.20117,-0.002 h -20.32422 c -16.84408,-5.61029 -34.44278,-8.34694 -52.72656,-8.34766 -44.10106,0 -80.81543,13.85666 -111.1875,43.05079 -2.43434,-6.60293 -6.1633,-12.65395 -10.96485,-17.79883 14.17819,-17.4808 20.80665,-38.07228 20.80665,-60.06055 0,-26.47173 -8.59195,-48.08442 -27.61133,-67.10352 -19.02068,-19.0202 -40.63054,-27.60637 -67.09961,-27.60937 -25.75158,0 -48.69372,9.419 -67.09571,27.5918 -18.43588,18.20611 -28.125,41.20807 -28.125,67.12109 0,17.43596 4.41114,33.71626 13.04493,48.23633 -8.39609,-3.3324 -16.91792,-6.02881 -25.53711,-8.04297 -15.31579,-3.579 -31.38152,-5.38081 -48.1543,-5.38281 -53.30105,-0.0131 -100.69043,16.18192 -138.4668,52.66015 -6.12739,5.91687 -11.7281,12.1489 -16.8125,18.67383 -4.58339,-5.58108 -9.39472,-10.99176 -14.60351,-16.0957 -18.10238,-17.73828 -39.01122,-31.72908 -62.8086,-41.26172 -23.45127,-9.4617 -48.0248,-13.98442 -73.42578,-13.98242 -25.156572,0.002 -49.512398,4.62015 -72.830075,13.94726 -23.3530766,9.34128 -44.197889,22.8431 -62.238281,40.39258 -0.44333,0.43126 -0.819193,0.91101 -1.257813,1.3457 -11.822118,-16.87143 -27.224584,-29.57898 -45.603515,-39.0664 -23.456406,-12.10857 -48.926756,-17.13295 -75.363286,-17.12695 -37.90384,0.0133 -74.06909,9.01995 -104.42578,33.125 -30.22219,23.99814 -45.67521,54.46549 -47.56836,91.80273 l -35.60547,-9.8e-4 z"
       sodipodi:nodetypes="ccccccccccccccccccccccccccccsscsscscscscssscscsccc" />
    <g
       id="g16743"
       transform="matrix(1.0195196,0,0,1.0195196,-58.6501,1077.6586)"
       inkscape:label="text"
       style="display:inline">
      <path
         id="path22515-7"
         style="font-size:512.088px;line-height:1.25;font-family:'Futura Md BT';-inkscape-font-specification:'Futura Md BT';clip-rule:evenodd;display:inline;fill:#2c90d9;fill-opacity:1;fill-rule:evenodd;stroke-width:12.9524;stroke-linejoin:round;stroke-miterlimit:2"
         d="m -746.36914,-355.08591 72.32031,140.61718 72.17578,-140.61718 -17.25097,-41.43265 -54.99707,35.43265 -60.11687,-35.00746 z m 237.83008,0 v 126.80078 h 70.1914 v -126.80078 l -33.48876,-40 z m 379.22064,55.9123 c 0,7.46869 -2.7691,13.25917 -7.7793,17.32032 -5.16053,4.15107 -12.90202,6.65625 -24.03906,6.65625 -13.19084,0 -23.32428,-2.87396 -30.83984,-8.02344 -7.39885,-5.06967 -12.75067,-12.67898 -15.68164,-23.08398 l -2.59766,-9.22852 -60.36914,32.86719 3.19141,6.56836 c 9.36712,19.27451 22.52172,33.9153 39.54492,43.53711 16.94662,9.57848 37.80685,14.14453 62.19922,14.14453 31.66106,0 57.48393,-6.95165 76.554686,-21.8574 19.567912,-15.29433 28.994142,-36.18165 28.994142,-62.44138 0,-18.16986 -5.304736,-33.63532 -16.273437,-46.22266 -1.835105,-2.10591 -3.723095,-4.1277 -5.910157,-6.14843 l -129.501144,-43.22582 -11.74685,43.22557 c 10.84647,7.55729 24.96682,14.79025 41.9453,21.94346 4.88281,2.05718 11.5006,4.66724 19.88767,7.75889 23.85484,8.79341 32.42088,18.1267 32.42088,26.20995 z m 91.601623,-55.9123 c 0.06383,18.336 3.519877,35.71445 10.449219,52.06054 6.989706,16.48858 17.181599,31.30459 30.5078126,44.45313 13.1877964,13.00956 28.2884594,22.93155 45.2617184,29.72461 16.93611,6.94669 34.601927,10.42382 52.953127,10.42382 18.66934,0 36.47492,-3.54208 53.45898,-10.42382 16.95346,-6.86934 32.3782,-16.87244 46.19336,-30.15625 13.23426,-12.6978 23.25635,-27.25928 30.09375,-43.79883 6.92548,-16.34815 10.37424,-33.80047 10.4375,-52.2832 l -35.93162,-40 -37.2715,40 c -4.4e-4,20.39253 -6.5935,37.42533 -19.69727,51.44335 -12.77781,13.6798 -28.57881,20.59571 -46.77734,20.59571 -18.183891,0 -34.080821,-6.9104 -47.029299,-20.59571 -12.923925,-14.00313 -19.444882,-31.04429 -19.445313,-51.44335 l -36.6015625,-40 z m 86.21875,126.23828 v 0.002 c -0.01356,-0.0102 -0.02746,-0.0115 -0.04102,-0.0156 l 0.06445,0.0274 c -0.0082,0 -0.01518,-0.0117 -0.02344,-0.0137 z m 353.488747,10.4282 c 13.54358,0 26.38661,-1.4926 38.51172,-4.52148 h 0.008 c 12.29456,-3.02971 23.82293,-7.5828 34.56836,-13.67188 l 3.87695,-2.19726 v -89.86719 l -13.66797,17.44922 c -7.25036,9.2557 -15.58754,16.08885 -24.83789,20.57422 -9.28227,4.33295 -20.04604,6.59961 -32.38477,6.59961 -22.22938,0 -38.95646,-6.54087 -50.87109,-18.875 -11.497,-12.23187 -17.7405,-29.55303 -18.02539,-52.15625 l -36.16341,-40.00023 -36.16341,39.99976 c 0,39.89163 12.36041,72.9364 37.62914,98.47484 25.34225,25.61274 58.0845,38.19164 97.51976,38.19164 z m 126.47414,-136.66648 v 126.80078 h 70.19141 v -126.80078 l -35.09571,-40 z m 232.54492,136.66989 c 17.91212,0 34.06919,-3.58964 48.29296,-10.97657 8.4747,-4.34946 16.16233,-10.1666 23.24219,-17.08984 v 18.20117 h 70.19141 v -126.80468 l -34.3877,-40 -34.38769,40 c -0.26586,22.3007 -6.01806,39.75522 -16.85352,52.7871 l -0.0156,0.0195 -0.0156,0.0195 c -10.72339,13.07368 -24.84419,19.71679 -42.15234,19.71679 -18.80534,0 -33.03976,-6.34878 -42.68555,-17.98046 -9.98453,-12.04021 -15.4414,-29.75146 -15.4414,-54.06055 0,-0.17878 0.0306,-0.32386 0.0312,-0.50195 l -36.36035,-39.99995 -36.38769,40.00005 c 0.16404,41.13543 10.06411,74.50512 30.87988,99.28416 21.24366,25.28839 49.97907,37.38573 86.0498,37.38573 z m 194.65821,-136.66989 v 126.80078 h 70.18943 v -126.80078 l -35.09472,-40 z m -1333.76953,61.95507 c -7.81937,8.02515 -11.78321,17.85967 -11.78321,29.11719 0,11.3498 3.84391,20.67203 11.85352,28.68164 0,0 0.0247,0.0247 0.0371,0.0371 0.0117,0.0117 0.0233,0.0236 0.0352,0.0352 7.89506,7.68727 17.656,11.52734 28.86132,11.52734 11.20532,0 21.02038,-3.78687 28.89939,-11.56349 8.09817,-7.99293 11.88766,-17.36799 11.88766,-28.71779 0,-11.25752 -3.96188,-21.09204 -11.78125,-29.11719 -8.01737,-8.22833 -17.47032,-12.17578 -29.00585,-12.17578 -11.53551,0 -20.98651,3.94745 -29.00388,12.17578 z"
         transform="matrix(0.98085412,0,0,0.98085412,57.527192,-1057.2327)"
         sodipodi:nodetypes="cccccccccccccscscccccssssscccssscsccssccccccscccccccccccccccccscccccscccccccscccccccccsssccccssccccccsssssssssss" />
      <path
         id="path22517-2"
         style="clip-rule:evenodd;display:inline;fill:#595aff;fill-opacity:1;fill-rule:evenodd;stroke:none;stroke-width:0.392342;stroke-linecap:round;stroke-linejoin:round;stroke-miterlimit:2;stroke-dasharray:none;stroke-opacity:1"
         d="m 994.89806,-1680.5502 v 275.2368 h 68.84564 v -275.2368 z m -426.21757,55.1451 c 0,11.2731 3.99968,21.2489 12.12271,29.3718 8.123,8.1229 18.09891,12.1226 29.37195,12.1226 11.35389,0 21.27038,-3.9187 29.1584,-11.9072 7.95881,-8.0602 11.8402,-18.1012 11.8402,-29.5874 0,-11.6616 -3.85663,-21.0964 -11.87944,-29.1191 -8.0229,-8.0228 -17.45751,-11.8786 -29.11907,-11.8798 -11.27301,0 -21.19908,4.0494 -29.34037,12.0893 -8.06713,7.9666 -12.15438,17.7657 -12.15438,28.9098 z m -1009.95593,5.1525 v 89.0795 H -543.7996 l -59.83785,116.578 -59.83785,-116.578 h -75.80738 l 64.73063,125.8597 h 141.72958 l 32.70153,-63.7114 h 58.8455 v 63.7114 h 68.84753 v -63.7114 h 41.18821 v -62.1483 h -41.18821 v -89.0795 z m 375.918585,155.5543 3.383181,8.9561 51.385644,-35.3721 c 0,0 -1.851875,-3.857 -2.777809,-5.7855 -6.7289,-14.0147 -17.404333,-24.4912 -31.850912,-31.9487 -14.281632,-7.3724 -30.989607,-11.0203 -50.094691,-11.0163 -28.409298,0.01 -51.988398,6.7949 -70.172518,21.2342 -18.34124,14.564 -27.40164,33.5453 -27.40164,56.9911 0,17.1996 5.58948,32.0676 16.87567,44.2944 l 0.023,0.023 0.0211,0.021 c 3.82522,4.0761 8.55981,8.0522 14.20132,11.9829 h 138.543723 c -10.359714,-9.5718 -25.076706,-18.0007 -43.477508,-25.3087 -4.936694,-2.0413 -11.824274,-4.6444 -20.596021,-7.7894 -26.990444,-9.8001 -36.743714,-19.172 -36.743714,-26.4466 0,-5.7468 2.20895,-10.2281 6.31542,-13.4619 4.64706,-3.6596 11.20826,-5.841 20.179565,-5.841 7.983358,0 14.66402,1.9442 20.391995,5.5172 5.728506,3.5734 9.62335,8.2035 11.794195,13.9503 z m 176.759985,9.1713 c 12.71593,-13.6031 28.30821,-20.4506 46.13271,-20.4504 18.00825,3e-4 33.53465,6.8879 46.11641,20.4309 12.64893,13.6154 19.08545,30.204 19.08545,50.2282 h 71.80159 c 5.7e-4,-0.1682 0.001,-0.3297 0.001,-0.4981 0,-17.7033 -3.40206,-34.6634 -10.25048,-50.8186 -6.85792,-16.1776 -16.90735,-30.5952 -29.95053,-43.3759 -13.13251,-12.8683 -27.97898,-22.7252 -44.63845,-29.3893 -16.48814,-6.6617 -34.05475,-9.9694 -52.66243,-9.9669 -18.14704,0 -35.54374,3.3205 -52.16243,9.968 -16.622929,6.6492 -31.348963,16.1966 -44.132686,28.6325 -12.936439,12.5844 -22.93215,27.048 -29.946702,43.3569 -0.0025,0.01 -0.0051,0.011 -0.0077,0.017 -0.0026,0.01 -0.0077,0.017 -0.0077,0.017 -7.252131,16.0112 -10.272148,33.391 -10.272148,51.5619 0,0.1683 0.0224,0.33 0.02299,0.4981 H 92.33394 c 0,-20.0242 6.399684,-36.6474 19.06919,-50.2113 z m 402.85724,3.9018 13.05187,14.3564 v -84.3611 c -1.28545,-0.7146 -2.57091,-1.4291 -3.85636,-2.1437 -9.56306,-5.316 -19.83793,-9.1211 -30.73982,-11.6687 -10.91188,-2.5499 -22.71899,-3.9175 -35.43431,-3.9191 -40.56283,-0.01 -73.9711,12.1931 -99.75113,37.0872 -25.63866,24.7576 -38.27055,57.2944 -38.27055,96.957 h 70.94142 c -0.007,-0.5206 -0.10536,-0.9583 -0.10536,-1.4847 0,-21.9051 6.18694,-38.9357 17.84311,-51.4661 11.46872,-12.3289 27.37878,-18.9485 47.35878,-18.9485 11.76604,0 22.55005,2.2391 32.48504,6.5743 10.06779,4.3931 18.92872,10.7139 26.47731,19.017 z m 345.96557,-7.2171 c 0,0 0.0116,0.013 0.0172,0.019 0.006,0.01 0.0172,0.021 0.0172,0.021 9.79034,11.9533 15.36033,28.8865 15.36033,51.993 l -0.0996,1.4904 h 67.45863 v -125.8558 h -68.84753 v 20.1113 c -5.31867,-5.8866 -11.5672,-10.8745 -18.71477,-15.0998 -14.97288,-8.8512 -32.67836,-13.1997 -52.93913,-13.2005 -33.73008,0 -60.99641,12.3808 -82.15701,37.4029 -20.85573,24.6616 -31.04933,56.7346 -31.04933,95.6555 h -2.2e-4 l 0.004,0.9885 h 71.35522 c 0.0811,-23.3443 5.53791,-40.7079 15.59405,-52.7611 10.03027,-12.0222 24.19484,-18.3987 42.38171,-18.3987 18.26307,0 31.65709,6.6296 41.61925,17.6343 z m -284.35183,-72.3346 v 125.8597 h 34.42377 34.42376 v -125.8597 z"
         sodipodi:nodetypes="cccccsssssssssccccccccccccccccccsccssssscccccscsssssssscccssssssssscccssccssssccssssssssccccccssscccsssscccccc"
         transform="translate(0,-0.20674443)" />
    </g>
    <path
       id="path118375-8"
       style="clip-rule:evenodd;display:inline;fill:#ff95be;fill-opacity:1;fill-rule:nonzero;stroke-width:2.53605;stroke-linejoin:round;stroke-miterlimit:2"
       d="m -617.43342,-189.62599 c -14.76999,0 -26.70094,11.93101 -26.70094,26.70095 0,14.76983 11.93095,26.70094 26.70094,26.70094 H 662.28333 823.51212 l 26.70094,-26.70094 -26.70094,-26.70095 H 662.28333 Z m 1468.26244,0 26.70094,26.70095 -26.70094,26.70094 h 27.3169 l 26.70095,-26.70094 -26.70095,-26.70095 z m 54.63528,0 26.70094,26.70095 -26.70094,26.70094 h 93.94266 c 14.76994,0 26.70244,-11.93111 26.70244,-26.70094 0,-14.76994 -11.9325,-26.70095 -26.70244,-26.70095 z"
       sodipodi:nodetypes="ssscccccsccccccccccsssc"
       inkscape:label="underline" />
  </g>
</svg>
